<svg id="Calque_1" data-name="Calque 1" xmlns="http://www.w3.org/2000/svg" viewBox="0 0 24 24"><defs><style>.cls-1{fill:none;}.cls-2{fill:#295598;}.cls-2,.cls-3{stroke:#295598;}.cls-2,.cls-3,.cls-5,.cls-6{stroke-miterlimit:10;stroke-width:0.25px;}.cls-3,.cls-4,.cls-6{fill:#fff;}.cls-5{fill:#1e7246;}.cls-5,.cls-6{stroke:#1e7246;}</style></defs><title>EXEL3</title><g id="WORD"><path class="cls-1" d="M0,0H24V24H0Z"/><path class="cls-2" d="M14,2H6A2,2,0,0,0,4,4V20a2,2,0,0,0,2,2H18a2,2,0,0,0,2-2V8ZM13,9V3.5L18.5,9Z"/><rect class="cls-3" x="5.41" y="3.81" width="6.73" height="1.85"/><rect class="cls-3" x="5.41" y="6.28" width="6.73" height="1.85"/><rect class="cls-3" x="5.41" y="8.75" width="6.73" height="1.85"/><rect class="cls-3" x="5.47" y="11" width="13.09" height="1.85"/><rect class="cls-3" x="5.43" y="13.3" width="13.09" height="1.85"/><rect class="cls-3" x="5.43" y="15.54" width="13.09" height="1.85"/><rect class="cls-3" x="5.43" y="17.86" width="13.09" height="1.85"/><polyline class="cls-4" points="13 3.5 18.5 9 13 9 13 3.5"/></g><g id="EXEL_test" data-name="EXEL test"><g id="EXEL_2" data-name="EXEL 2"><path class="cls-1" d="M0,0H22.27V22.38H0Z"/><path class="cls-5" d="M14,2H6A2,2,0,0,0,4,4V20a2,2,0,0,0,2,2H18a2,2,0,0,0,2-2V8Zm0,5.49-.11-1.83,1,1.67Z"/><rect class="cls-6" x="4.93" y="4.08" width="4.33" height="3.33"/></g><polyline class="cls-6" points="12.35 7.41 9.5 7.41 9.5 4.08 12.35 4.08 12.35 7.41"/><polyline class="cls-6" points="13.02 3.07 18.52 8.57 13.02 8.57 13.02 3.07"/></g><rect class="cls-6" x="5" y="8.21" width="4.33" height="3.33"/><polygon class="cls-6" points="9.57 8.21 12.42 8.21 12.43 9.5 13.9 9.5 13.9 11.54 9.57 11.54 9.57 8.21"/><rect class="cls-6" x="4.96" y="12.4" width="4.33" height="3.33"/><rect class="cls-6" x="9.54" y="12.4" width="4.33" height="3.33"/><rect class="cls-6" x="14.15" y="12.4" width="4.33" height="3.33"/><rect class="cls-6" x="5" y="16.44" width="4.33" height="3.33"/><rect class="cls-6" x="9.57" y="16.44" width="4.33" height="3.33"/><rect class="cls-6" x="14.19" y="16.44" width="4.33" height="3.33"/><rect class="cls-6" x="14.19" y="9.51" width="4.33" height="2.03"/></svg>