<svg xmlns="http://www.w3.org/2000/svg" viewBox="0 0 24 24"><defs><style>.cls-1{fill:none;}.cls-2{fill:#295598;}.cls-2,.cls-3{stroke:#295598;}.cls-2,.cls-3,.cls-5,.cls-6{stroke-miterlimit:10;stroke-width:0.25px;}.cls-3,.cls-4,.cls-6{fill:#fff;}.cls-5{fill:#1e7246;}.cls-5,.cls-6{stroke:#1e7246;}</style></defs><title>EXEL2</title><g id="WORD"><path class="cls-1" d="M0,0H24V24H0Z" transform="translate(0 0)"/><path class="cls-2" d="M14,2H6A2,2,0,0,0,4,4V20a2,2,0,0,0,2,2H18a2,2,0,0,0,2-2V8ZM13,9V3.5L18.5,9Z" transform="translate(0 0)"/><rect class="cls-3" x="5.41" y="3.81" width="6.73" height="1.85"/><rect class="cls-3" x="5.41" y="6.28" width="6.73" height="1.85"/><rect class="cls-3" x="5.41" y="8.75" width="6.73" height="1.85"/><rect class="cls-3" x="5.47" y="11" width="13.09" height="1.85"/><rect class="cls-3" x="5.43" y="13.3" width="13.09" height="1.85"/><rect class="cls-3" x="5.43" y="15.54" width="13.09" height="1.85"/><rect class="cls-3" x="5.43" y="17.86" width="13.09" height="1.85"/><polyline class="cls-4" points="13 3.5 18.5 9 13 9 13 3.5"/></g><g id="EXEL_test" data-name="EXEL test"><g id="EXEL_2" data-name="EXEL 2"><path class="cls-1" d="M0,0H24V24H0Z" transform="translate(0 0)"/><path class="cls-5" d="M14,2H6A2,2,0,0,0,4,4V20a2,2,0,0,0,2,2H18a2,2,0,0,0,2-2V8ZM13,9V3.5L18.5,9Z" transform="translate(0 0)"/><rect class="cls-6" x="5.13" y="3.63" width="6.62" height="5.29"/><rect class="cls-6" x="5.13" y="9.58" width="6.62" height="5.29"/><rect class="cls-6" x="12.2" y="9.58" width="6.62" height="5.29"/><rect class="cls-6" x="5.13" y="15.58" width="6.62" height="5.29"/><rect class="cls-6" x="12.2" y="15.58" width="6.62" height="5.29"/></g><polyline class="cls-4" points="13 3.54 18.5 9.04 13 9.04 13 3.54"/></g></svg>