<svg id="Calque_1" data-name="Calque 1" xmlns="http://www.w3.org/2000/svg" viewBox="0 0 24 24"><defs><style>.cls-1{fill:none;}.cls-2{fill:#319b31;}</style></defs><title>input</title><path class="cls-1" d="M0,.5H24v24H0Z" transform="translate(0 -0.5)"/><path class="cls-2" d="M21,3.5H15v2h6v14H3v-14H9v-2H3a2,2,0,0,0-2,2v14a2,2,0,0,0,2,2H21a2,2,0,0,0,2-2V5.5A2,2,0,0,0,21,3.5Z" transform="translate(0 -0.5)"/><polygon class="cls-2" points="12 16.69 16 12.69 13 12.69 13 3.69 11 3.69 11 12.69 8 12.69 12 16.69"/></svg>