<?xml version="1.0" encoding="utf-8"?>
<!-- Generator: Adobe Illustrator 24.0.1, SVG Export Plug-In . SVG Version: 6.00 Build 0)  -->
<svg version="1.1" xmlns="http://www.w3.org/2000/svg" xmlns:xlink="http://www.w3.org/1999/xlink" x="0px" y="0px"
	 viewBox="0 0 24 24" style="enable-background:new 0 0 24 24;" xml:space="preserve">
<style type="text/css">
	.st0{display:none;}
	.st1{display:inline;fill:none;}
	.st2{display:inline;fill:#295598;stroke:#295598;stroke-width:0.25;stroke-miterlimit:10;}
	.st3{display:inline;fill:#FFFFFF;stroke:#295598;stroke-width:0.25;stroke-miterlimit:10;}
	.st4{display:inline;fill:#FFFFFF;}
	.st5{display:inline;}
	.st6{fill:none;}
	.st7{fill:#1E7246;stroke:#1E7246;stroke-width:0.25;stroke-miterlimit:10;}
	.st8{fill:#FFFFFF;stroke:#1E7246;stroke-width:0.25;stroke-miterlimit:10;}
	.st9{display:inline;fill:#1E7246;stroke:#1E7246;stroke-width:0.25;stroke-miterlimit:10;}
	.st10{display:inline;fill:#FFFFFF;stroke:#1E7246;stroke-width:0.25;stroke-miterlimit:10;}
	.st11{display:inline;fill:#D04626;stroke:#D04626;stroke-width:0.25;stroke-miterlimit:10;}
	.st12{display:inline;fill:#FFFFFF;stroke:#D04626;stroke-width:0.25;stroke-miterlimit:10;}
	.st13{fill:#FFFFFF;stroke:#D04626;stroke-width:0.25;stroke-miterlimit:10;}
	.st14{fill:#5B5B5B;}
</style>
<g id="WORD" class="st0">
	<path class="st1" d="M0,0h24v24H0V0z"/>
	<path class="st2" d="M14,2H6C4.9,2,4,2.9,4,4l0,16c0,1.1,0.9,2,2,2h12c1.1,0,2-0.9,2-2V8L14,2z M13,9V3.5L18.5,9H13z"/>
	<rect x="5.4" y="3.8" class="st3" width="6.7" height="1.9"/>
	<rect x="5.4" y="6.3" class="st3" width="6.7" height="1.9"/>
	<rect x="5.4" y="8.7" class="st3" width="6.7" height="1.9"/>
	<rect x="5.5" y="11" class="st3" width="13.1" height="1.9"/>
	<rect x="5.4" y="13.3" class="st3" width="13.1" height="1.9"/>
	<rect x="5.4" y="15.5" class="st3" width="13.1" height="1.9"/>
	<rect x="5.4" y="17.9" class="st3" width="13.1" height="1.9"/>
	<polyline class="st4" points="13,3.5 18.5,9 13,9 13,3.5 	"/>
</g>
<g id="EXEL_test" class="st0">
	<g id="EXEL_2" class="st5">
		<path class="st6" d="M0,0h24v24H0V0z"/>
		<path class="st7" d="M14,2H6C4.9,2,4,2.9,4,4l0,16c0,1.1,0.9,2,2,2h12c1.1,0,2-0.9,2-2V8L14,2z M13,9V3.5L18.5,9H13z"/>
		<rect x="5.1" y="3.6" class="st8" width="6.6" height="5.3"/>
		<rect x="5.1" y="9.6" class="st8" width="6.6" height="5.3"/>
		<rect x="12.2" y="9.6" class="st8" width="6.6" height="5.3"/>
		<rect x="5.1" y="15.6" class="st8" width="6.6" height="5.3"/>
		<rect x="12.2" y="15.6" class="st8" width="6.6" height="5.3"/>
	</g>
	<g id="EXEL">
		<path class="st1" d="M0,0h24v24H0V0z"/>
		<path class="st9" d="M14,2H6C4.9,2,4,2.9,4,4l0,16c0,1.1,0.9,2,2,2h12c1.1,0,2-0.9,2-2V8L14,2z M13,9V3.5L18.5,9H13z"/>
		<rect x="12.1" y="11.1" class="st10" width="3" height="1.9"/>
		<rect x="15.4" y="11.1" class="st10" width="3.2" height="1.9"/>
		<rect x="8.8" y="11.1" class="st10" width="3.1" height="1.9"/>
		<rect x="5.4" y="11.1" class="st10" width="3.1" height="1.9"/>
		<rect x="8.8" y="8.8" class="st10" width="3.1" height="1.9"/>
		<rect x="5.4" y="8.8" class="st10" width="3.1" height="1.9"/>
		<rect x="8.8" y="6.3" class="st10" width="3.1" height="1.9"/>
		<rect x="5.4" y="6.3" class="st10" width="3.1" height="1.9"/>
		<rect x="8.8" y="3.8" class="st10" width="3.1" height="1.9"/>
		<rect x="5.4" y="3.8" class="st10" width="3.1" height="1.9"/>
		<rect x="12" y="17.9" class="st10" width="3.3" height="1.9"/>
		<rect x="15.4" y="17.9" class="st10" width="3.1" height="1.9"/>
		<rect x="8.7" y="17.9" class="st10" width="3.3" height="1.9"/>
		<rect x="5.4" y="17.9" class="st10" width="3.3" height="1.9"/>
		<rect x="12" y="15.7" class="st10" width="3.3" height="1.9"/>
		<rect x="15.2" y="15.7" class="st10" width="3.3" height="1.9"/>
		<rect x="8.7" y="15.7" class="st10" width="3.3" height="1.9"/>
		<rect x="5.4" y="15.7" class="st10" width="3.3" height="1.9"/>
		<rect x="12.2" y="13.3" class="st10" width="3" height="1.9"/>
		<rect x="15.4" y="13.3" class="st10" width="3.2" height="1.9"/>
		<rect x="8.8" y="13.3" class="st10" width="3.1" height="1.9"/>
		<rect x="5.5" y="13.3" class="st10" width="3.1" height="1.9"/>
		<rect x="12.1" y="15.6" class="st10" width="3" height="1.9"/>
		<rect x="15.3" y="15.6" class="st10" width="3.2" height="1.9"/>
		<rect x="8.8" y="15.6" class="st10" width="3.1" height="1.9"/>
		<rect x="5.4" y="15.6" class="st10" width="3.1" height="1.9"/>
		<rect x="12.1" y="17.9" class="st10" width="3" height="1.9"/>
		<rect x="8.8" y="17.9" class="st10" width="3.1" height="1.9"/>
		<rect x="5.4" y="17.9" class="st10" width="3.1" height="1.9"/>
	</g>
	<polyline class="st4" points="13,3.5 18.5,9 13,9 13,3.5 	"/>
</g>
<g id="PPT" class="st0">
	<path class="st11" d="M14,2H6C4.9,2,4,2.9,4,4l0,16c0,1.1,0.9,2,2,2h12c1.1,0,2-0.9,2-2V8L14,2z M13,9V3.5L18.5,9H13z"/>
	<rect x="5.4" y="13.3" class="st12" width="13.1" height="1.9"/>
	<rect x="5.4" y="15.5" class="st12" width="13.1" height="1.9"/>
	<rect x="5.4" y="17.9" class="st12" width="13.1" height="1.9"/>
	<g class="st5">
		<path class="st13" d="M8.3,8.4V5.6c-1.6,0-2.9,1.3-2.9,2.9c0,1.6,1.3,2.9,2.9,2.9c1.6,0,2.9-1.3,2.9-2.9H8.3z"/>
	</g>
	<path class="st12" d="M11.8,7.8c0-0.2,0-0.3,0-0.5c0-0.1,0-0.1,0-0.2C11.4,5.9,10.2,5,8.9,5v2.9H11.8z"/>
	<rect x="12" y="11.1" class="st12" width="6.5" height="1.9"/>
	<polyline class="st4" points="13,3.5 18.5,9 13,9 13,3.5 	"/>
</g>
<g id="PHOTO">
	<ellipse class="st14" cx="12" cy="13.5" rx="2.6" ry="2.5"/>
	<path class="st14" d="M9.6,5.8L8.1,7.4H5.6C4.7,7.4,4,8.1,4,8.9v9.3c0,0.8,0.7,1.5,1.6,1.5h12.8c0.9,0,1.6-0.7,1.6-1.5V8.9
		c0-0.8-0.7-1.5-1.6-1.5h-2.5l-1.5-1.5H9.6z M12,17.4c-2.2,0-4-1.7-4-3.9s1.8-3.9,4-3.9s4,1.7,4,3.9S14.2,17.4,12,17.4z"/>
</g>
</svg>
