<svg xmlns="http://www.w3.org/2000/svg" viewBox="0 0 24 24"><defs><style>.cls-1{fill:none;}.cls-2{fill:#295598;}.cls-2,.cls-3{stroke:#295598;}.cls-2,.cls-3,.cls-5,.cls-6,.cls-7,.cls-8{stroke-miterlimit:10;stroke-width:0.25px;}.cls-3,.cls-4,.cls-6,.cls-8{fill:#fff;}.cls-5{fill:#1e7246;}.cls-5,.cls-6{stroke:#1e7246;}.cls-7{fill:#d04626;}.cls-7,.cls-8{stroke:#d04626;}</style></defs><title>PPT</title><g id="WORD"><path class="cls-1" d="M0,0H24V24H0Z" transform="translate(0 0)"/><path class="cls-2" d="M14,2H6A2,2,0,0,0,4,4V20a2,2,0,0,0,2,2H18a2,2,0,0,0,2-2V8ZM13,9V3.5L18.5,9Z" transform="translate(0 0)"/><rect class="cls-3" x="5.41" y="3.81" width="6.73" height="1.85"/><rect class="cls-3" x="5.41" y="6.28" width="6.73" height="1.85"/><rect class="cls-3" x="5.41" y="8.75" width="6.73" height="1.85"/><rect class="cls-3" x="5.47" y="11" width="13.09" height="1.85"/><rect class="cls-3" x="5.43" y="13.3" width="13.09" height="1.85"/><rect class="cls-3" x="5.43" y="15.54" width="13.09" height="1.85"/><rect class="cls-3" x="5.43" y="17.86" width="13.09" height="1.85"/><polyline class="cls-4" points="13 3.5 18.5 9 13 9 13 3.5"/></g><g id="EXEL_test" data-name="EXEL test"><g id="EXEL_2" data-name="EXEL 2"><path class="cls-1" d="M0,0H24V24H0Z" transform="translate(0 0)"/><path class="cls-5" d="M14,2H6A2,2,0,0,0,4,4V20a2,2,0,0,0,2,2H18a2,2,0,0,0,2-2V8ZM13,9V3.5L18.5,9Z" transform="translate(0 0)"/><rect class="cls-6" x="5.13" y="3.63" width="6.62" height="5.29"/><rect class="cls-6" x="5.13" y="9.58" width="6.62" height="5.29"/><rect class="cls-6" x="12.2" y="9.58" width="6.62" height="5.29"/><rect class="cls-6" x="5.13" y="15.58" width="6.62" height="5.29"/><rect class="cls-6" x="12.2" y="15.58" width="6.62" height="5.29"/></g><g id="EXEL"><path class="cls-1" d="M0,0H24V24H0Z" transform="translate(0 0)"/><path class="cls-5" d="M14,2H6A2,2,0,0,0,4,4V20a2,2,0,0,0,2,2H18a2,2,0,0,0,2-2V8ZM13,9V3.5L18.5,9Z" transform="translate(0 0)"/><rect class="cls-6" x="12.13" y="11.1" width="3" height="1.85"/><rect class="cls-6" x="15.36" y="11.1" width="3.16" height="1.85"/><rect class="cls-6" x="8.77" y="11.1" width="3.07" height="1.85"/><rect class="cls-6" x="5.43" y="11.1" width="3.13" height="1.85"/><rect class="cls-6" x="8.77" y="8.77" width="3.07" height="1.85"/><rect class="cls-6" x="5.41" y="8.77" width="3.15" height="1.85"/><rect class="cls-6" x="8.77" y="6.29" width="3.06" height="1.85"/><rect class="cls-6" x="5.41" y="6.29" width="3.15" height="1.85"/><rect class="cls-6" x="8.77" y="3.78" width="3.06" height="1.85"/><rect class="cls-6" x="5.41" y="3.81" width="3.15" height="1.85"/><rect class="cls-6" x="11.97" y="17.86" width="3.27" height="1.85"/><rect class="cls-6" x="15.38" y="17.86" width="3.14" height="1.85"/><rect class="cls-6" x="8.7" y="17.86" width="3.27" height="1.85"/><rect class="cls-6" x="5.43" y="17.86" width="3.27" height="1.85"/><rect class="cls-6" x="11.97" y="15.66" width="3.27" height="1.85"/><rect class="cls-6" x="15.25" y="15.66" width="3.27" height="1.85"/><rect class="cls-6" x="8.7" y="15.66" width="3.27" height="1.85"/><rect class="cls-6" x="5.43" y="15.66" width="3.27" height="1.85"/><rect class="cls-6" x="12.16" y="13.32" width="3" height="1.85"/><rect class="cls-6" x="15.38" y="13.32" width="3.16" height="1.85"/><rect class="cls-6" x="8.79" y="13.32" width="3.07" height="1.85"/><rect class="cls-6" x="5.45" y="13.32" width="3.13" height="1.85"/><rect class="cls-6" x="12.12" y="15.63" width="3" height="1.85"/><rect class="cls-6" x="15.34" y="15.63" width="3.16" height="1.85"/><rect class="cls-6" x="8.76" y="15.63" width="3.07" height="1.85"/><rect class="cls-6" x="5.41" y="15.63" width="3.13" height="1.85"/><rect class="cls-6" x="12.15" y="17.85" width="3" height="1.85"/><rect class="cls-6" x="8.78" y="17.85" width="3.07" height="1.85"/><rect class="cls-6" x="5.44" y="17.85" width="3.13" height="1.85"/></g><polyline class="cls-4" points="13 3.54 18.5 9.04 13 9.04 13 3.54"/></g><g id="PPT"><path class="cls-7" d="M14,2H6A2,2,0,0,0,4,4V20a2,2,0,0,0,2,2H18a2,2,0,0,0,2-2V8ZM13,9V3.5L18.5,9Z" transform="translate(0 0)"/><rect class="cls-8" x="5.43" y="13.3" width="13.09" height="1.85"/><rect class="cls-8" x="5.43" y="15.54" width="13.09" height="1.85"/><rect class="cls-8" x="5.43" y="17.86" width="13.09" height="1.85"/><path class="cls-8" d="M8.28,8.45V5.59a2.86,2.86,0,1,0,2.86,2.86Z" transform="translate(0 0)"/><path class="cls-8" d="M11.76,7.83a2.3,2.3,0,0,0,0-.45,2.07,2.07,0,0,0,0-.22A2.84,2.84,0,0,0,8.9,5V7.83Z" transform="translate(0 0)"/><rect class="cls-8" x="11.97" y="11.07" width="6.55" height="1.85"/><polyline class="cls-4" points="13 3.53 18.5 9.03 13 9.03 13 3.53"/></g></svg>