<svg id="WORD" xmlns="http://www.w3.org/2000/svg" viewBox="0 0 24 24"><defs><style>.cls-1{fill:none;}.cls-2{fill:#295598;}.cls-2,.cls-3{stroke:#295598;stroke-miterlimit:10;stroke-width:0.25px;}.cls-3,.cls-4{fill:#fff;}</style></defs><title>WORD</title><path class="cls-1" d="M0,0H24V24H0Z"/><path class="cls-2" d="M14,2H6A2,2,0,0,0,4,4V20a2,2,0,0,0,2,2H18a2,2,0,0,0,2-2V8ZM13,9V3.5L18.5,9Z"/><rect class="cls-3" x="5.41" y="3.81" width="6.73" height="1.85"/><rect class="cls-3" x="5.41" y="6.28" width="6.73" height="1.85"/><rect class="cls-3" x="5.41" y="8.75" width="6.73" height="1.85"/><rect class="cls-3" x="5.47" y="11" width="13.09" height="1.85"/><rect class="cls-3" x="5.43" y="13.3" width="13.09" height="1.85"/><rect class="cls-3" x="5.43" y="15.54" width="13.09" height="1.85"/><rect class="cls-3" x="5.43" y="17.86" width="13.09" height="1.85"/><polyline class="cls-4" points="13 3.5 18.5 9 13 9 13 3.5"/></svg>